<svg width="1871" height="702" viewBox="0 0 1871 702" fill="none" xmlns="http://www.w3.org/2000/svg">
<path d="M1869.51 366.385C1870.13 367.002 1870.44 367.619 1870.44 368.236C1870.44 371.938 1865.5 379.033 1855.63 389.522C1846.37 400.01 1834.03 412.967 1818.61 428.391C1815.53 438.262 1813.06 448.134 1811.21 458.005C1809.36 467.877 1806.89 477.44 1803.8 486.694L1801.95 489.471C1801.95 490.088 1801.64 490.705 1801.03 491.322C1801.03 491.322 1801.03 491.63 1801.03 492.247V493.173L1799.18 495.949C1799.18 496.566 1798.87 497.183 1798.25 497.8C1798.25 498.417 1798.25 499.034 1798.25 499.651L1796.4 505.204L1794.55 508.905C1793.31 510.756 1792.08 512.607 1790.85 514.458C1790.23 516.309 1789.3 518.468 1788.07 520.936L1786.22 522.787H1787.14C1784.68 527.723 1781.59 532.042 1777.89 535.744C1774.19 539.445 1770.8 543.147 1767.71 546.849L1765.86 547.774L1761.23 551.476V550.551L1760.31 551.476C1759.69 552.093 1759.38 552.402 1759.38 552.402C1760 552.402 1759.69 552.71 1758.46 553.327H1756.6C1755.37 554.561 1754.14 555.487 1752.9 556.104C1751.67 557.337 1750.13 557.954 1748.28 557.954L1739.95 560.731C1739.33 560.731 1738.4 560.731 1737.17 560.731C1736.55 561.348 1735.63 561.656 1734.39 561.656V562.582V561.656C1733.78 562.273 1732.85 562.582 1731.62 562.582C1729.77 562.582 1728.53 562.273 1727.92 561.656L1724.21 560.731C1721.13 560.114 1717.43 558.88 1713.11 557.029C1709.41 555.795 1706.32 553.944 1703.85 551.476V552.402H1709.41L1708.48 551.476L1711.26 552.402L1710.33 551.476L1712.18 552.402C1712.8 553.019 1714.96 553.636 1718.66 554.253C1722.98 554.87 1725.76 555.487 1726.99 556.104C1737.48 556.104 1744.57 554.253 1748.28 550.551C1752.59 547.466 1757.22 544.381 1762.16 541.296V542.222C1762.16 542.839 1762.77 542.53 1764.01 541.296H1763.08C1763.08 540.062 1764.32 538.211 1766.78 535.744C1755.68 544.998 1744.57 549.625 1733.47 549.625C1722.98 549.625 1715.27 547.466 1710.33 543.147C1706.01 539.445 1703.85 534.818 1703.85 529.265C1703.85 523.096 1707.25 516.001 1714.03 507.98C1721.44 499.342 1729.77 490.705 1739.02 482.067C1748.89 472.813 1758.46 464.484 1767.71 457.08C1777.58 449.059 1785.29 442.581 1790.85 437.645C1792.7 425.306 1794.24 412.967 1795.47 400.627C1796.71 387.671 1797.32 375.023 1797.32 362.683C1797.32 357.131 1797.02 350.036 1796.4 341.398C1795.78 332.143 1794.86 323.197 1793.62 314.56C1793.01 305.922 1791.46 298.519 1789 292.349C1787.14 286.179 1784.99 283.094 1782.52 283.094C1775.73 283.094 1768.94 288.03 1762.16 297.902C1755.37 307.773 1748.58 320.421 1741.8 335.845C1735.01 350.653 1728.53 367.002 1722.36 384.894C1716.81 402.17 1711.57 418.519 1706.63 433.943C1702.31 448.751 1698.61 461.399 1695.52 471.887C1693.06 482.376 1691.82 487.928 1691.82 488.545C1686.27 494.098 1683.49 505.82 1683.49 523.713V528.34L1681.64 537.594C1681.64 538.828 1681.33 539.445 1680.72 539.445C1680.1 540.062 1679.79 540.679 1679.79 541.296C1679.79 541.913 1679.79 542.53 1679.79 543.147C1680.41 543.764 1680.72 544.381 1680.72 544.998L1679.79 549.625L1678.87 557.954C1678.87 558.571 1678.56 558.88 1677.94 558.88C1677.32 558.88 1677.02 559.188 1677.02 559.805C1677.02 560.422 1677.02 561.039 1677.02 561.656C1677.63 562.273 1677.94 562.89 1677.94 563.507L1676.09 579.24C1674.86 589.728 1673.01 600.834 1670.54 612.556C1668.07 624.279 1665.6 636.927 1663.13 650.5L1656.66 681.04C1656.04 681.657 1655.42 683.816 1654.8 687.518L1652.95 691.22C1651.72 693.071 1651.1 695.23 1651.1 697.698C1650.49 700.166 1647.09 701.4 1640.92 701.4C1629.2 701.4 1621.8 699.858 1618.71 696.773C1615.63 694.305 1614.08 692.454 1614.08 691.22C1614.08 689.369 1614.39 688.135 1615.01 687.518L1616.86 680.115C1619.95 648.032 1624.26 615.024 1629.82 581.091C1635.37 547.774 1641.23 515.384 1647.4 483.918C1653.57 451.836 1660.05 421.604 1666.84 393.223C1673.62 364.843 1679.79 339.856 1685.34 318.262C1691.51 296.051 1696.76 277.85 1701.08 263.66C1706.01 249.469 1709.72 240.523 1712.18 236.822C1711.57 236.822 1712.18 235.279 1714.03 232.194C1716.5 228.493 1720.51 226.642 1726.06 226.642C1734.7 226.642 1741.18 229.418 1745.5 234.971C1749.82 240.523 1751.98 244.534 1751.98 247.002C1751.98 250.086 1751.36 253.171 1750.13 256.256C1748.89 258.724 1747.97 261.809 1747.35 265.511C1752.29 260.575 1759.07 255.331 1767.71 249.778C1776.35 244.225 1783.75 241.449 1789.92 241.449C1799.79 241.449 1807.2 247.002 1812.13 258.107C1817.68 268.596 1821.39 280.318 1823.24 293.274C1825.71 306.231 1826.94 318.57 1826.94 330.293C1826.94 341.398 1826.94 347.568 1826.94 348.802C1826.94 369.779 1825.09 390.447 1821.39 410.807C1837.43 396 1848.22 385.511 1853.78 379.342C1859.95 372.555 1863.34 368.236 1863.96 366.385C1865.19 364.534 1865.19 364.226 1863.96 365.46C1863.34 366.077 1864.57 366.385 1867.66 366.385H1869.51ZM1645.55 680.115H1643.7H1645.55ZM1645.55 680.115L1646.48 681.04L1645.55 680.115ZM1734.39 556.104H1733.47H1732.54H1734.39ZM1738.1 556.104C1737.48 555.487 1737.17 555.178 1737.17 555.178C1737.79 555.178 1738.1 555.487 1738.1 556.104ZM1745.5 552.402L1744.57 553.327L1745.5 552.402ZM1749.2 554.253L1751.05 552.402L1749.2 554.253ZM1751.98 550.551L1754.75 547.774L1751.98 550.551ZM1764.93 543.147V542.222H1765.86C1765.24 542.839 1764.93 543.147 1764.93 543.147ZM1764.93 541.296L1765.86 540.371C1765.24 541.605 1764.93 542.222 1764.93 542.222V541.296ZM1768.64 542.222L1767.71 541.296L1765.86 543.147V545.924L1767.71 543.147L1768.64 542.222ZM1780.67 522.787C1780.67 522.787 1780.98 522.479 1781.59 521.862C1780.98 521.862 1780.67 522.17 1780.67 522.787V523.713V522.787ZM1780.67 521.862V522.787V521.862ZM1739.95 528.34C1750.44 524.021 1759.38 515.692 1766.78 503.353C1774.19 490.396 1780.36 475.897 1785.29 459.856C1780.36 464.175 1775.73 468.494 1771.41 472.813C1767.71 476.514 1763.39 480.525 1758.46 484.844C1755.99 487.311 1752.59 490.705 1748.28 495.024C1744.57 499.342 1740.56 503.97 1736.24 508.905C1731.31 514.458 1726.37 520.628 1721.44 527.414C1722.67 528.648 1725.14 529.574 1728.84 530.191C1732.54 530.808 1734.7 531.116 1735.32 531.116C1736.55 531.116 1736.86 530.808 1736.24 530.191C1735.63 528.957 1736.86 528.34 1739.95 528.34ZM1787.14 520.011L1788.07 519.085L1787.14 520.011Z" fill="black"/>
<path d="M1690.54 372.864C1689.31 381.501 1683.76 390.756 1673.89 400.627C1664.63 410.499 1652.91 416.36 1638.72 418.211C1635.63 424.998 1630.7 437.337 1623.91 455.229C1617.74 472.504 1609.72 489.163 1599.85 505.204L1598.92 507.055C1598.92 507.055 1598.61 507.672 1598 508.906L1597.07 509.831V510.757V511.682V512.608L1595.22 514.458V516.309L1594.3 517.235L1589.67 524.638H1590.59C1589.36 527.106 1587.82 529.574 1585.97 532.042C1584.73 533.893 1583.19 535.744 1581.34 537.595L1579.49 539.446L1578.56 541.297V542.222L1573.94 545.924L1571.16 549.626L1567.46 553.328L1564.68 554.253H1565.61C1563.14 555.487 1560.67 556.721 1558.2 557.955C1556.35 559.806 1554.81 561.348 1553.58 562.582L1554.5 561.657L1555.43 560.731L1556.35 557.029L1555.43 557.955L1556.35 556.104L1555.43 557.029V556.104C1555.43 556.104 1555.12 556.412 1554.5 557.029L1553.58 557.955L1551.73 558.88V561.657V564.433C1551.11 565.05 1550.49 565.358 1549.87 565.358H1548.95C1548.95 565.358 1549.57 565.05 1550.8 564.433L1548.95 565.358V564.433V565.358H1548.02H1547.1L1548.02 562.582C1548.64 562.582 1548.64 562.891 1548.02 563.508C1548.02 564.125 1548.33 564.433 1548.95 564.433C1550.18 564.433 1550.8 563.816 1550.8 562.582L1549.87 563.508C1549.87 563.508 1549.57 563.199 1548.95 562.582C1548.95 562.582 1549.26 562.274 1549.87 561.657H1548.95L1550.8 560.731H1549.87C1550.49 561.348 1550.49 561.348 1549.87 560.731C1549.87 560.114 1550.49 559.806 1551.73 559.806V558.88C1552.96 558.88 1551.42 560.114 1547.1 562.582C1543.4 565.05 1539.69 566.284 1535.99 566.284H1533.22C1531.98 566.901 1530.44 567.209 1528.59 567.209C1515.63 567.209 1506.07 562.274 1499.9 552.402C1493.73 542.531 1489.41 531.734 1486.94 520.011C1483.86 508.289 1482.32 497.8 1482.32 488.546C1482.32 478.674 1482.32 474.047 1482.32 474.664C1482.32 444.432 1485.4 415.126 1491.57 386.746C1497.74 358.365 1505.14 333.069 1513.78 310.858C1522.42 288.647 1531.06 270.447 1539.69 256.256C1548.33 241.449 1555.12 232.503 1560.05 229.418H1559.13C1559.13 228.801 1560.67 227.876 1563.76 226.642C1566.84 225.408 1569.93 224.791 1573.01 224.791C1577.95 224.791 1582.57 229.418 1586.89 238.673C1588.13 237.439 1589.98 235.896 1592.45 234.046C1595.53 231.578 1599.23 230.344 1603.55 230.344C1622.68 230.344 1635.94 239.907 1643.35 259.033C1650.75 278.159 1654.45 302.529 1654.45 332.144C1654.45 349.419 1652.29 367.62 1647.97 386.746C1651.67 385.512 1655.38 383.969 1659.08 382.118C1662.78 380.267 1665.56 377.491 1667.41 373.789H1668.33V371.013V371.938L1669.26 371.013C1669.26 371.013 1668.95 370.704 1668.33 370.087L1669.26 369.162L1670.18 362.684L1671.11 359.907L1672.96 358.057L1672.03 357.131C1673.27 352.195 1673.89 348.493 1673.89 346.026V347.877L1676.66 349.727L1677.59 350.653C1677.59 351.27 1677.59 351.578 1677.59 351.578C1678.2 351.578 1678.51 351.887 1678.51 352.504L1677.59 358.057L1678.51 354.355L1680.36 348.802C1680.36 348.185 1680.67 348.185 1681.29 348.802C1681.91 348.802 1682.21 348.185 1682.21 346.951V345.1V344.175V342.324L1684.07 338.622L1683.14 336.771L1684.07 333.069C1684.07 331.218 1684.37 329.984 1684.99 329.367C1684.99 328.75 1685.3 328.133 1685.92 327.516L1684.99 325.666C1686.84 323.815 1688.69 322.889 1690.54 322.889C1691.78 322.889 1692.39 324.123 1692.39 326.591C1693.01 328.442 1693.63 330.601 1694.25 333.069C1694.25 333.069 1693.94 333.686 1693.32 334.92C1693.32 335.537 1693.63 335.846 1694.25 335.846L1695.17 336.771C1695.17 337.388 1694.86 338.005 1694.25 338.622C1693.63 338.622 1693.32 339.239 1693.32 340.473C1693.32 341.09 1693.63 341.707 1694.25 342.324C1694.86 342.324 1695.17 342.941 1695.17 344.175L1694.25 345.1L1695.17 351.578L1694.25 352.504C1693.63 352.504 1693.32 352.812 1693.32 353.429C1693.32 353.429 1693.63 354.046 1694.25 355.28L1693.32 357.131L1694.25 361.758C1693.01 361.758 1692.09 362.067 1691.47 362.684C1691.47 363.301 1691.78 363.609 1692.39 363.609L1693.32 364.535L1690.54 372.864ZM1545.25 562.582C1546.48 561.348 1547.1 560.423 1547.1 559.806C1545.86 561.04 1544.63 561.657 1543.4 561.657C1542.78 562.274 1541.85 562.891 1540.62 563.508H1539.69C1537.84 563.508 1536.3 563.508 1535.07 563.508C1533.83 564.125 1532.29 564.433 1530.44 564.433V565.358L1531.37 566.284H1534.14H1536.92L1535.99 565.358H1537.84C1538.46 564.741 1539.08 564.433 1539.69 564.433C1540.31 565.05 1540.93 565.05 1541.55 564.433L1542.47 565.358L1545.25 562.582ZM1556.35 556.104V555.178V556.104ZM1567.46 546.849C1567.46 546.232 1566.84 545.924 1565.61 545.924L1567.46 546.849ZM1569.31 542.222H1568.38L1569.31 543.147V542.222ZM1572.09 542.222L1573.01 541.297L1572.09 542.222ZM1572.09 540.371L1573.01 537.595C1573.01 538.212 1572.7 538.52 1572.09 538.52C1572.09 539.137 1572.09 539.754 1572.09 540.371ZM1568.38 542.222C1570.85 538.52 1572.39 536.361 1573.01 535.744C1570.54 538.829 1567.77 541.914 1564.68 544.998C1561.6 548.7 1559.75 550.551 1559.13 550.551V552.402L1561.91 549.626L1562.83 550.551C1562.83 549.317 1563.45 547.466 1564.68 544.998C1566.53 543.148 1567.77 542.222 1568.38 542.222ZM1575.79 533.893C1575.79 533.893 1576.1 533.584 1576.71 532.967L1575.79 533.893V532.042C1575.79 532.659 1575.17 533.585 1573.94 534.818C1574.55 534.201 1574.86 533.584 1574.86 532.967L1575.79 533.893ZM1576.71 533.893C1577.33 533.893 1577.64 533.584 1577.64 532.967L1576.71 533.893ZM1577.64 534.818C1577.64 534.818 1577.95 534.51 1578.56 533.893H1577.64V534.818ZM1581.34 534.818L1580.41 533.893V534.818H1578.56H1579.49V536.669L1580.41 534.818H1581.34ZM1584.12 522.788H1585.04H1584.12ZM1585.04 523.713V522.788V523.713ZM1586.89 518.16H1587.82H1586.89ZM1589.67 522.788L1590.59 521.862L1589.67 522.788ZM1595.22 440.422L1593.37 439.497L1590.59 441.347L1594.3 443.198L1595.22 440.422ZM1598 408.957C1589.98 404.638 1583.19 399.085 1577.64 392.298C1572.09 384.895 1567.46 377.491 1563.76 370.087C1560.67 362.067 1558.2 354.663 1556.35 347.877C1555.12 340.473 1554.5 334.92 1554.5 331.218C1548.95 346.026 1541.85 367.62 1533.22 396C1525.2 424.381 1521.19 456.155 1521.19 491.322C1521.19 495.641 1521.19 500.577 1521.19 506.129C1521.8 511.065 1522.73 515.692 1523.96 520.011C1525.2 524.33 1526.74 528.032 1528.59 531.117C1530.44 534.201 1532.91 535.744 1535.99 535.744C1540.31 535.744 1544.63 533.584 1548.95 529.266C1553.88 524.947 1558.51 519.394 1562.83 512.608C1567.15 505.204 1571.16 497.492 1574.86 489.471C1579.18 480.834 1582.88 472.504 1585.97 464.484V462.633V463.558L1591.52 437.646L1592.45 433.018V433.944L1593.37 432.093H1592.45V430.242L1595.22 421.913L1596.15 415.435C1596.15 415.435 1596.76 413.892 1598 410.807H1597.07H1598V408.957ZM1598.92 426.54V424.689V426.54ZM1601.7 416.36V415.435V416.36ZM1610.03 351.578C1610.03 330.601 1609.1 312.092 1607.25 296.051C1605.4 280.01 1603.55 271.064 1601.7 269.213C1599.85 269.213 1598.31 273.223 1597.07 281.244C1596.46 289.264 1596.15 297.285 1596.15 305.306C1596.15 310.241 1596.46 319.804 1597.07 333.995C1598.31 348.185 1602.32 360.524 1609.1 371.013C1609.72 367.928 1610.03 364.843 1610.03 361.758C1610.03 358.057 1610.03 354.663 1610.03 351.578Z" fill="black"/>
<path d="M1512.5 372.864C1511.27 381.501 1505.72 390.756 1495.84 400.627C1486.59 410.499 1474.87 416.36 1460.68 418.211C1457.59 424.998 1452.66 437.337 1445.87 455.229C1439.7 472.504 1431.68 489.163 1421.81 505.204L1420.88 507.055C1420.88 507.055 1420.57 507.672 1419.96 508.906L1419.03 509.831V510.757V511.682V512.608L1417.18 514.458V516.309L1416.25 517.235L1411.63 524.638H1412.55C1411.32 527.106 1409.78 529.574 1407.93 532.042C1406.69 533.893 1405.15 535.744 1403.3 537.595L1401.45 539.446L1400.52 541.297V542.222L1395.89 545.924L1393.12 549.626L1389.42 553.328L1386.64 554.253H1387.57C1385.1 555.487 1382.63 556.721 1380.16 557.955C1378.31 559.806 1376.77 561.348 1375.53 562.582L1376.46 561.657L1377.39 560.731L1378.31 557.029L1377.39 557.955L1378.31 556.104L1377.39 557.029V556.104C1377.39 556.104 1377.08 556.412 1376.46 557.029L1375.53 557.955L1373.68 558.88V561.657V564.433C1373.07 565.05 1372.45 565.358 1371.83 565.358H1370.91C1370.91 565.358 1371.52 565.05 1372.76 564.433L1370.91 565.358V564.433V565.358H1369.98H1369.06L1369.98 562.582C1370.6 562.582 1370.6 562.891 1369.98 563.508C1369.98 564.125 1370.29 564.433 1370.91 564.433C1372.14 564.433 1372.76 563.816 1372.76 562.582L1371.83 563.508C1371.83 563.508 1371.52 563.199 1370.91 562.582C1370.91 562.582 1371.22 562.274 1371.83 561.657H1370.91L1372.76 560.731H1371.83C1372.45 561.348 1372.45 561.348 1371.83 560.731C1371.83 560.114 1372.45 559.806 1373.68 559.806V558.88C1374.92 558.88 1373.38 560.114 1369.06 562.582C1365.35 565.05 1361.65 566.284 1357.95 566.284H1355.17C1353.94 566.901 1352.4 567.209 1350.55 567.209C1337.59 567.209 1328.03 562.274 1321.86 552.402C1315.69 542.531 1311.37 531.734 1308.9 520.011C1305.82 508.289 1304.27 497.8 1304.27 488.546C1304.27 478.674 1304.27 474.047 1304.27 474.664C1304.27 444.432 1307.36 415.126 1313.53 386.746C1319.7 358.365 1327.1 333.069 1335.74 310.858C1344.38 288.647 1353.02 270.447 1361.65 256.256C1370.29 241.449 1377.08 232.503 1382.01 229.418H1381.09C1381.09 228.801 1382.63 227.876 1385.71 226.642C1388.8 225.408 1391.88 224.791 1394.97 224.791C1399.9 224.791 1404.53 229.418 1408.85 238.673C1410.08 237.439 1411.94 235.896 1414.4 234.046C1417.49 231.578 1421.19 230.344 1425.51 230.344C1444.64 230.344 1457.9 239.907 1465.3 259.033C1472.71 278.159 1476.41 302.529 1476.41 332.144C1476.41 349.419 1474.25 367.62 1469.93 386.746C1473.63 385.512 1477.33 383.969 1481.04 382.118C1484.74 380.267 1487.51 377.491 1489.37 373.789H1490.29V371.013V371.938L1491.22 371.013C1491.22 371.013 1490.91 370.704 1490.29 370.087L1491.22 369.162L1492.14 362.684L1493.07 359.907L1494.92 358.057L1493.99 357.131C1495.23 352.195 1495.84 348.493 1495.84 346.026V347.877L1498.62 349.727L1499.55 350.653C1499.55 351.27 1499.55 351.578 1499.55 351.578C1500.16 351.578 1500.47 351.887 1500.47 352.504L1499.55 358.057L1500.47 354.355L1502.32 348.802C1502.32 348.185 1502.63 348.185 1503.25 348.802C1503.86 348.802 1504.17 348.185 1504.17 346.951V345.1V344.175V342.324L1506.02 338.622L1505.1 336.771L1506.02 333.069C1506.02 331.218 1506.33 329.984 1506.95 329.367C1506.95 328.75 1507.26 328.133 1507.87 327.516L1506.95 325.666C1508.8 323.815 1510.65 322.889 1512.5 322.889C1513.74 322.889 1514.35 324.123 1514.35 326.591C1514.97 328.442 1515.59 330.601 1516.2 333.069C1516.2 333.069 1515.9 333.686 1515.28 334.92C1515.28 335.537 1515.59 335.846 1516.2 335.846L1517.13 336.771C1517.13 337.388 1516.82 338.005 1516.2 338.622C1515.59 338.622 1515.28 339.239 1515.28 340.473C1515.28 341.09 1515.59 341.707 1516.2 342.324C1516.82 342.324 1517.13 342.941 1517.13 344.175L1516.2 345.1L1517.13 351.578L1516.2 352.504C1515.59 352.504 1515.28 352.812 1515.28 353.429C1515.28 353.429 1515.59 354.046 1516.2 355.28L1515.28 357.131L1516.2 361.758C1514.97 361.758 1514.04 362.067 1513.43 362.684C1513.43 363.301 1513.74 363.609 1514.35 363.609L1515.28 364.535L1512.5 372.864ZM1367.21 562.582C1368.44 561.348 1369.06 560.423 1369.06 559.806C1367.82 561.04 1366.59 561.657 1365.35 561.657C1364.74 562.274 1363.81 562.891 1362.58 563.508H1361.65C1359.8 563.508 1358.26 563.508 1357.03 563.508C1355.79 564.125 1354.25 564.433 1352.4 564.433V565.358L1353.32 566.284H1356.1H1358.88L1357.95 565.358H1359.8C1360.42 564.741 1361.04 564.433 1361.65 564.433C1362.27 565.05 1362.89 565.05 1363.5 564.433L1364.43 565.358L1367.21 562.582ZM1378.31 556.104V555.178V556.104ZM1389.42 546.849C1389.42 546.232 1388.8 545.924 1387.57 545.924L1389.42 546.849ZM1391.27 542.222H1390.34L1391.27 543.147V542.222ZM1394.04 542.222L1394.97 541.297L1394.04 542.222ZM1394.04 540.371L1394.97 537.595C1394.97 538.212 1394.66 538.52 1394.04 538.52C1394.04 539.137 1394.04 539.754 1394.04 540.371ZM1390.34 542.222C1392.81 538.52 1394.35 536.361 1394.97 535.744C1392.5 538.829 1389.72 541.914 1386.64 544.998C1383.56 548.7 1381.7 550.551 1381.09 550.551V552.402L1383.86 549.626L1384.79 550.551C1384.79 549.317 1385.41 547.466 1386.64 544.998C1388.49 543.148 1389.72 542.222 1390.34 542.222ZM1397.75 533.893C1397.75 533.893 1398.05 533.584 1398.67 532.967L1397.75 533.893V532.042C1397.75 532.659 1397.13 533.585 1395.89 534.818C1396.51 534.201 1396.82 533.584 1396.82 532.967L1397.75 533.893ZM1398.67 533.893C1399.29 533.893 1399.6 533.584 1399.6 532.967L1398.67 533.893ZM1399.6 534.818C1399.6 534.818 1399.9 534.51 1400.52 533.893H1399.6V534.818ZM1403.3 534.818L1402.37 533.893V534.818H1400.52H1401.45V536.669L1402.37 534.818H1403.3ZM1406.07 522.788H1407H1406.07ZM1407 523.713V522.788V523.713ZM1408.85 518.16H1409.78H1408.85ZM1411.63 522.788L1412.55 521.862L1411.63 522.788ZM1417.18 440.422L1415.33 439.497L1412.55 441.347L1416.25 443.198L1417.18 440.422ZM1419.96 408.957C1411.94 404.638 1405.15 399.085 1399.6 392.298C1394.04 384.895 1389.42 377.491 1385.71 370.087C1382.63 362.067 1380.16 354.663 1378.31 347.877C1377.08 340.473 1376.46 334.92 1376.46 331.218C1370.91 346.026 1363.81 367.62 1355.17 396C1347.15 424.381 1343.14 456.155 1343.14 491.322C1343.14 495.641 1343.14 500.577 1343.14 506.129C1343.76 511.065 1344.69 515.692 1345.92 520.011C1347.15 524.33 1348.7 528.032 1350.55 531.117C1352.4 534.201 1354.87 535.744 1357.95 535.744C1362.27 535.744 1366.59 533.584 1370.91 529.266C1375.84 524.947 1380.47 519.394 1384.79 512.608C1389.11 505.204 1393.12 497.492 1396.82 489.471C1401.14 480.834 1404.84 472.504 1407.93 464.484V462.633V463.558L1413.48 437.646L1414.4 433.018V433.944L1415.33 432.093H1414.4V430.242L1417.18 421.913L1418.11 415.435C1418.11 415.435 1418.72 413.892 1419.96 410.807H1419.03H1419.96V408.957ZM1420.88 426.54V424.689V426.54ZM1423.66 416.36V415.435V416.36ZM1431.99 351.578C1431.99 330.601 1431.06 312.092 1429.21 296.051C1427.36 280.01 1425.51 271.064 1423.66 269.213C1421.81 269.213 1420.26 273.223 1419.03 281.244C1418.41 289.264 1418.11 297.285 1418.11 305.306C1418.11 310.241 1418.41 319.804 1419.03 333.995C1420.26 348.185 1424.28 360.524 1431.06 371.013C1431.68 367.928 1431.99 364.843 1431.99 361.758C1431.99 358.057 1431.99 354.663 1431.99 351.578Z" fill="black"/>
<path d="M1316.48 458.93C1317.71 458.93 1318.95 459.238 1320.18 459.855C1321.41 460.472 1322.03 461.398 1322.03 462.632C1322.03 463.249 1321.72 463.866 1321.11 464.483C1320.49 464.483 1319.87 465.1 1319.25 466.334C1319.25 466.951 1319.25 467.568 1319.25 468.184C1319.87 468.184 1320.18 468.493 1320.18 469.11L1318.33 470.035V471.886C1318.33 472.503 1317.71 473.12 1316.48 473.737C1315.86 473.737 1315.55 474.354 1315.55 475.588C1315.55 476.205 1315.55 476.822 1315.55 477.439C1316.17 477.439 1316.48 477.748 1316.48 478.364H1314.63L1315.55 480.215L1313.7 484.843C1313.7 485.46 1313.39 485.768 1312.78 485.768H1311.85C1311.85 486.385 1311.85 487.002 1311.85 487.619C1312.47 487.619 1312.78 487.928 1312.78 488.545L1310.93 490.395L1310 494.097C1310 494.714 1309.69 495.023 1309.07 495.023H1308.15C1308.15 495.64 1308.46 496.257 1309.07 496.874L1306.3 505.203C1303.83 510.138 1301.36 515.383 1298.89 520.935C1297.04 526.488 1294.58 532.658 1291.49 539.445C1290.26 541.295 1289.02 544.072 1287.79 547.774C1286.56 551.475 1284.7 555.177 1282.24 558.879C1279.77 563.198 1276.38 566.591 1272.06 569.059C1268.35 572.144 1263.11 573.686 1256.32 573.686C1247.07 573.686 1240.28 570.602 1235.96 564.432C1232.26 558.879 1229.79 552.401 1228.56 544.997C1227.33 537.594 1227.02 530.498 1227.63 523.712C1228.25 516.925 1228.56 512.606 1228.56 510.755C1228.56 495.948 1229.18 480.832 1230.41 465.408C1232.26 449.984 1234.42 435.177 1236.89 420.986C1239.97 406.796 1243.06 393.84 1246.14 382.117C1249.23 369.778 1252.31 359.598 1255.4 351.577C1248.61 348.492 1240.9 342.94 1232.26 334.919C1224.24 358.981 1217.76 379.341 1212.83 395.999C1207.89 412.04 1202.03 429.315 1195.24 447.825L1194.32 448.75L1193.39 449.675H1194.32L1193.39 450.601V451.526V452.452L1192.47 455.228H1193.39L1192.47 456.154L1191.54 461.706C1190.31 465.408 1189.07 468.801 1187.84 471.886V473.737L1186.91 474.663C1186.91 474.663 1187.22 474.971 1187.84 475.588H1186.91L1185.06 479.29L1183.21 482.992H1184.14L1182.29 484.843L1181.36 485.768C1180.75 487.002 1180.13 488.545 1179.51 490.395C1178.89 491.629 1178.28 492.863 1177.66 494.097H1176.73H1177.66V492.246L1175.81 489.47L1174.88 490.395L1175.81 489.47C1175.81 488.853 1175.81 488.545 1175.81 488.545C1175.19 488.545 1174.88 488.236 1174.88 487.619L1177.66 483.917L1176.73 482.992C1176.73 481.758 1176.73 481.141 1176.73 481.141C1176.12 480.524 1177.35 476.514 1180.44 469.11L1181.36 470.035C1181.36 469.418 1181.67 469.418 1182.29 470.035C1182.29 470.035 1182.29 469.727 1182.29 469.11H1181.36V467.259L1179.51 471.886H1177.66V474.663L1175.81 478.364L1173.03 482.992L1171.18 486.694L1170.26 488.545L1168.41 492.246L1166.55 495.023C1165.94 496.257 1165.32 497.182 1164.7 497.799L1163.78 498.725H1164.7L1163.78 499.65L1162.85 500.575C1160.39 500.575 1159.15 499.65 1159.15 497.799L1161 494.097L1160.08 492.246L1161.93 491.321L1161 489.47L1162.85 487.619V483.917L1163.78 479.29L1164.7 476.514L1165.63 472.812L1167.48 470.961L1166.55 470.035L1168.41 463.557C1171.49 453.686 1174.88 441.963 1178.59 428.39C1182.29 414.2 1185.99 399.701 1189.69 384.894C1193.39 370.086 1196.48 355.587 1198.95 341.397C1202.03 326.59 1204.5 313.325 1206.35 301.603C1200.8 291.114 1197.09 281.243 1195.24 271.988C1193.39 262.117 1192.47 253.787 1192.47 247.001C1192.47 239.597 1192.47 234.661 1192.47 232.193C1192.47 229.726 1196.48 228.492 1204.5 228.492C1218.69 228.492 1228.87 229.109 1235.04 230.343C1241.83 231.577 1246.14 233.736 1247.99 236.821C1250.46 239.906 1251.39 243.916 1250.77 248.852C1250.77 253.787 1251.08 259.957 1251.7 267.361C1252.31 274.764 1254.16 283.711 1257.25 294.199C1260.95 304.071 1267.43 315.484 1276.68 328.441C1281 329.675 1284.7 331.834 1287.79 334.919C1290.87 337.387 1293.34 340.163 1295.19 343.248C1297.66 345.716 1299.51 347.875 1300.75 349.726C1301.98 351.577 1302.6 352.503 1302.6 352.503C1302.6 354.354 1301.98 356.513 1300.75 358.981V359.906V360.832V359.906V360.832C1300.75 361.449 1301.05 361.757 1301.67 361.757L1299.82 362.683L1300.75 361.757C1300.75 361.14 1300.44 360.832 1299.82 360.832C1299.82 365.768 1297.35 374.097 1292.42 385.819C1287.48 397.541 1283.16 414.817 1279.46 437.644C1277.61 449.984 1274.52 465.1 1270.21 482.992C1265.89 500.267 1263.73 517.234 1263.73 533.892C1267.43 528.956 1270.82 524.02 1273.91 519.085C1277.61 513.532 1281 508.288 1284.09 503.352L1285.01 501.501L1285.94 499.65V498.725L1286.86 497.799L1289.64 493.172L1292.42 487.619H1291.49L1293.34 485.768L1295.19 483.917C1296.43 482.066 1297.35 479.907 1297.97 477.439C1299.2 474.971 1300.44 473.12 1301.67 471.886V472.812L1300.75 474.663L1301.67 477.439L1303.52 473.737H1305.37L1304.45 472.812L1302.6 470.961L1303.52 470.035C1304.14 468.802 1304.76 468.184 1305.37 468.184L1304.45 469.11H1306.3V467.259V468.184L1307.22 467.259V470.035C1306.61 470.035 1306.3 470.035 1306.3 470.035C1306.92 469.418 1306.92 469.11 1306.3 469.11C1305.68 469.11 1305.06 469.418 1304.45 470.035C1304.45 470.652 1304.76 470.961 1305.37 470.961V470.035C1305.99 470.035 1306.3 470.344 1306.3 470.961L1308.15 467.259L1310.93 463.557L1313.7 460.781C1314.32 460.164 1314.94 459.855 1315.55 459.855H1314.63L1315.55 458.93H1316.48ZM1179.51 476.514L1178.59 477.439L1179.51 476.514ZM1177.66 482.066V481.141V482.066ZM1177.66 480.215H1178.59H1179.51H1177.66ZM1182.29 476.514V475.588V476.514ZM1182.29 469.11H1183.21H1182.29ZM1185.99 469.11H1185.06L1185.99 470.961V470.035V469.11ZM1186.91 461.706C1186.91 461.706 1186.61 461.398 1185.99 460.781V461.706H1186.91ZM1200.8 432.092L1199.87 433.943C1200.49 432.709 1200.8 432.092 1200.8 432.092Z" fill="black"/>
<path d="M925.344 654.203V653.277L926.269 654.203H925.344ZM919.791 651.426V650.501C919.174 649.884 918.866 649.267 918.866 648.65C918.866 648.65 919.174 648.958 919.791 649.575L918.866 647.724H919.791C919.791 647.107 919.483 646.799 918.866 646.799L921.642 647.724V648.65C921.025 648.65 920.717 648.341 920.717 647.724C920.717 647.724 920.408 647.724 919.791 647.724C919.791 648.958 920.408 649.575 921.642 649.575L920.717 648.65C921.334 648.65 921.642 648.65 921.642 648.65C921.642 649.267 921.951 649.575 922.568 649.575V648.65L923.493 649.575C922.876 649.575 922.568 649.884 922.568 650.501C923.185 650.501 923.802 650.809 924.419 651.426L923.493 650.501L921.642 651.426H919.791ZM1043.8 675.488H1042.88H1043.8ZM921.642 653.277L918.866 652.352L919.791 651.426L922.568 650.501L924.419 651.426L925.344 653.277L926.269 655.128H924.419H925.344H921.642L920.717 654.203L921.642 653.277ZM994.753 691.221V690.295H996.604V691.221L997.53 692.146L996.604 691.221V692.146L993.828 693.072V691.221H994.753ZM1042.88 681.041C1042.88 680.424 1042.88 680.115 1042.88 680.115C1043.49 680.115 1043.8 679.807 1043.8 679.19V678.264L1042.88 676.413L1041.95 677.339H1041.03L1040.1 678.264L1042.88 676.413L1043.8 674.563C1042.57 675.797 1040.72 677.031 1038.25 678.264L1037.32 680.115L1034.55 681.041H1031.77L1030.85 681.966C1030.85 682.583 1030.54 682.892 1029.92 682.892C1029.92 682.892 1029.92 683.509 1029.92 684.743L1030.85 686.593L1034.55 682.892L1033.62 681.966L1035.47 682.892V683.817C1036.09 683.817 1036.4 683.509 1036.4 682.892C1036.4 682.892 1036.71 682.892 1037.32 682.892L1039.17 681.041L1043.8 683.817L1041.95 681.041H1042.88ZM1043.8 675.488H1042.88H1043.8ZM1024.37 686.593H1028.07V682.892H1027.14C1025.91 682.892 1024.68 683.509 1023.44 684.743V685.668L1024.37 686.593ZM1011.41 692.146L1013.26 691.221L1012.34 690.295H1014.19C1014.8 690.912 1015.42 691.221 1016.04 691.221L1016.96 690.295L1016.04 689.37L1017.89 688.444L1016.96 687.519L1015.11 686.593L1014.19 687.519L1012.34 689.37L1011.41 687.519L1010.49 688.444C1009.25 688.444 1008.63 689.061 1008.63 690.295L1009.56 691.221L1011.41 692.146ZM1053.06 669.01C1052.44 669.627 1050.9 670.552 1048.43 671.786V672.712L1053.98 671.786L1053.06 669.01ZM993.828 693.997H991.977L992.902 696.774L995.679 695.848V693.997H993.828ZM1100.25 628.29C1100.25 627.673 1100.25 627.364 1100.25 627.364C1100.87 627.364 1101.18 627.056 1101.18 626.439L1102.11 627.364C1102.11 627.364 1101.8 627.981 1101.18 629.215V630.141L1099.33 629.215L1100.25 628.29ZM942.002 680.115L940.151 679.19V681.041H941.077L942.002 680.115ZM989.2 697.699L991.977 696.774H989.2L987.349 697.699H989.2ZM927.195 665.308L925.344 667.159L924.419 665.308L926.269 664.383L927.195 665.308ZM1083.6 646.799V647.724V645.874L1084.52 644.948V644.023L1081.75 646.799H1083.6ZM1094.7 634.768V633.843V634.768ZM1070.64 657.904L1071.57 658.83L1072.49 656.979L1073.42 655.128L1070.64 656.054C1070.64 656.67 1070.33 656.979 1069.71 656.979L1070.64 657.904ZM943.853 577.39L944.779 580.166L942.928 576.464L943.853 577.39ZM950.331 586.644L951.257 589.421V593.123V594.048C950.64 594.048 950.331 593.74 950.331 593.123V591.272L951.257 594.048H950.331L951.257 595.899V597.75L948.48 594.048V593.123C949.097 593.123 949.714 593.431 950.331 594.048C949.714 593.431 949.406 592.814 949.406 592.197C949.406 591.58 949.097 590.963 948.48 590.346C949.097 590.963 949.406 591.58 949.406 592.197C948.789 592.197 948.48 591.889 948.48 591.272L947.555 590.346L948.48 591.272C947.246 590.038 946.629 588.804 946.629 587.57V588.495C946.629 588.495 946.938 588.187 947.555 587.57C946.321 586.336 945.704 585.41 945.704 584.793L946.629 585.719C946.629 586.336 946.938 586.644 947.555 586.644H948.48H950.331ZM948.48 581.092L947.555 579.241L944.779 574.613V576.464L942.928 573.688L943.853 577.39L944.779 582.017L945.704 584.793L946.629 585.719C947.246 586.336 947.555 586.644 947.555 586.644H950.331H951.257L948.48 582.017V581.092ZM942.002 508.906V512.608L941.077 510.757V508.906L942.002 507.981V508.906ZM943.853 553.328L945.704 552.403V554.253L946.629 557.03H944.779L943.853 553.328ZM1062.31 455.23H1064.16H1062.31ZM1150.23 376.566H1149.3H1150.23ZM1049.35 454.304H1050.28H1049.35ZM1056.76 456.155L1057.68 455.23L1059.53 454.304H1056.76H1057.68H1054.91H1055.83C1054.6 454.304 1053.98 454.613 1053.98 455.23H1054.91C1054.91 455.847 1054.6 456.155 1053.98 456.155C1053.37 455.538 1052.75 455.23 1052.13 455.23C1052.75 454.613 1053.06 454.304 1053.06 454.304V453.379L1050.28 454.304C1050.9 454.921 1051.21 455.23 1051.21 455.23L1052.13 456.155H1053.98H1052.13C1052.13 456.772 1052.44 457.081 1053.06 457.081H1054.91L1056.76 458.006V456.155ZM1163.19 355.281V356.206V355.281ZM1059.53 458.006L1055.83 458.932L1056.76 456.155L1057.68 455.23L1059.53 454.304H1061.39L1064.16 455.23L1066.01 456.155H1064.16L1065.09 457.081L1062.31 458.932H1060.46L1059.53 458.006ZM1151.16 379.342L1150.23 377.492L1149.3 375.641L1151.16 373.79H1153.01L1152.08 374.715L1153.01 375.641L1151.16 379.342ZM1182.62 313.635V311.784V309.933C1181.39 312.401 1179.54 316.72 1177.07 322.89L1176.14 324.741C1175.53 325.358 1175.22 325.975 1175.22 326.592C1175.22 326.592 1174.91 326.9 1174.29 327.517C1174.29 328.751 1174.6 329.676 1175.22 330.293L1177.07 332.144L1177.99 324.741H1176.14L1178.92 322.89L1180.77 321.039V317.337L1186.32 315.486H1185.4L1182.62 313.635ZM1173.37 333.07L1172.44 331.219C1171.82 333.07 1170.9 335.229 1169.66 337.697H1172.44L1175.22 333.995L1174.29 333.07H1173.37ZM1166.89 349.728V346.952H1165.04C1164.42 347.569 1164.11 348.185 1164.11 348.802C1164.11 348.802 1163.8 349.111 1163.19 349.728L1164.11 350.653L1163.19 354.355H1161.34V356.206C1160.72 356.823 1160.41 357.44 1160.41 358.057L1161.34 358.982C1161.34 359.599 1161.64 359.908 1162.26 359.908L1163.19 358.982L1164.11 357.132L1165.96 354.355H1164.11L1165.04 353.43C1166.27 353.43 1166.89 352.813 1166.89 351.579L1167.81 349.728H1166.89ZM1163.19 356.206V355.281V356.206ZM1154.86 377.492L1153.93 376.566L1151.16 381.193L1153.01 382.119L1155.78 377.492H1154.86ZM1105.81 443.199L1104.88 442.273L1103.96 443.199V445.975L1105.81 444.124V443.199ZM1152.08 385.821L1153.01 383.044V386.746L1151.16 389.522V385.821H1152.08ZM1078.97 458.006L1079.9 459.857H1078.04L1077.12 458.932L1078.97 458.006ZM1012.34 560.732H1011.41L1010.49 557.955H1012.34L1013.26 556.104V560.732H1012.34ZM1211.31 60.986C1216.86 75.1763 1220.26 89.0581 1221.49 102.631C1223.34 115.588 1224.27 125.768 1224.27 133.171C1224.27 155.382 1221.49 179.136 1215.94 204.431C1211 229.11 1204.83 252.555 1197.43 274.766V273.841C1197.43 275.075 1197.12 276.308 1196.5 277.542C1195.89 278.159 1195.58 279.085 1195.58 280.319V281.244C1195.58 282.478 1195.27 283.095 1194.65 283.095V284.021C1194.65 285.255 1194.03 287.414 1192.8 290.499C1192.18 293.584 1191.57 295.743 1190.95 296.977V296.051C1190.33 296.668 1190.02 297.285 1190.02 297.902C1190.64 298.519 1190.64 298.828 1190.02 298.828V299.753L1185.4 315.486L1182.62 313.635V311.784V309.933C1181.39 312.401 1179.54 316.72 1177.07 322.89L1176.14 324.741C1175.53 325.358 1175.22 325.975 1175.22 326.592C1175.22 326.592 1174.91 326.9 1174.29 327.517C1174.29 328.751 1174.6 329.676 1175.22 330.293L1177.07 332.144L1177.99 324.741H1176.14L1178.92 322.89L1180.77 321.039V317.337L1185.4 315.486V318.262C1184.78 318.879 1184.47 319.496 1184.47 320.113H1183.55H1182.62V321.039V321.964L1181.7 322.89V325.666L1178.92 332.144C1178.92 337.697 1177.38 344.175 1174.29 351.579C1171.82 358.365 1168.43 365.461 1164.11 372.864C1160.41 380.268 1156.09 387.672 1151.16 395.075C1146.84 401.862 1142.83 407.723 1139.12 412.659L1136.35 414.51C1136.35 414.51 1136.04 415.127 1135.42 416.361L1133.57 418.212V417.286V418.212C1133.57 418.212 1133.26 418.829 1132.65 420.062L1128.94 423.764L1128.02 425.615L1122.47 433.019L1121.54 432.093L1120.61 433.944H1121.54C1119.07 436.412 1116.3 438.88 1113.21 441.348C1110.74 443.199 1107.97 445.358 1104.88 447.826H1103.96L1101.18 450.602V449.677L1100.25 450.602V451.528H1099.33L1091.93 454.304L1087.3 457.081C1086.68 457.081 1086.06 457.389 1085.45 458.006C1085.45 458.006 1084.83 458.006 1083.6 458.006V458.932V458.006L1079.9 458.932H1077.12C1075.27 459.549 1072.8 459.857 1069.71 459.857C1066.01 459.857 1062.31 459.24 1058.61 458.006L1060.46 458.932H1062.31L1065.09 457.081H1064.16L1066.01 456.155H1065.09L1066.94 455.23V456.155C1068.17 454.921 1069.71 454.304 1071.57 454.304C1074.03 453.687 1075.88 453.379 1077.12 453.379V454.304C1077.74 453.07 1080.82 451.219 1086.37 448.752C1092.54 446.284 1097.17 443.816 1100.25 441.348V442.273C1100.87 441.656 1101.18 441.656 1101.18 442.273C1101.18 442.273 1101.49 441.965 1102.11 441.348H1101.18C1101.8 441.348 1102.41 440.731 1103.03 439.497C1103.65 438.88 1104.27 438.263 1104.88 437.646C1105.5 436.412 1106.42 435.178 1107.66 433.944V434.87C1108.28 433.636 1108.89 433.019 1109.51 433.019C1110.74 432.402 1111.98 431.476 1113.21 430.242L1115.06 429.317C1115.06 428.083 1115.37 426.849 1115.99 425.615L1120.61 421.913C1121.85 419.445 1123.39 417.286 1125.24 415.435C1127.09 413.584 1128.64 411.425 1129.87 408.957H1130.8C1132.03 405.872 1133.57 403.404 1135.42 401.553C1137.27 399.085 1138.82 396.618 1140.05 394.15V395.075C1141.28 395.075 1141.9 394.458 1141.9 393.224C1141.9 392.607 1141.59 392.299 1140.98 392.299L1143.75 389.522C1144.37 388.905 1144.68 388.289 1144.68 387.672V384.895C1145.91 383.661 1146.53 382.736 1146.53 382.119C1147.14 380.885 1148.07 380.268 1149.3 380.268L1150.23 377.492L1151.16 379.342L1153.01 375.641L1152.08 374.715L1153.01 373.79H1151.16C1153.01 370.705 1154.24 368.854 1154.86 368.237V367.312C1155.47 366.078 1156.09 365.152 1156.71 364.535C1157.32 363.301 1157.94 362.067 1158.56 360.833V359.908V358.982C1144.99 384.895 1129.87 405.872 1113.21 421.913C1097.17 437.955 1082.98 445.975 1070.64 445.975C1067.56 445.975 1065.09 445.667 1063.24 445.05C1061.39 443.816 1060.15 443.199 1059.53 443.199H1058.61V441.348C1058.61 437.646 1059.23 435.487 1060.46 434.87C1061.69 434.253 1063.85 433.636 1066.94 433.019C1070.64 431.785 1074.96 429.625 1079.9 426.541C1084.83 422.839 1091 416.052 1098.4 406.181C1108.28 393.224 1117.22 377.492 1125.24 358.982C1133.26 339.856 1140.05 319.805 1145.6 298.828C1151.77 277.851 1156.4 256.874 1159.48 235.897C1162.57 214.303 1164.11 194.251 1164.11 175.742C1164.11 172.041 1163.8 166.179 1163.19 158.159C1163.19 150.138 1162.57 141.809 1161.34 133.171C1160.72 123.917 1159.79 114.971 1158.56 106.333C1157.32 97.0787 1155.47 89.3666 1153.01 83.1969C1133.26 95.5363 1112.9 116.205 1091.93 145.202C1070.95 174.2 1051.21 206.282 1032.7 241.45C1014.19 276.617 997.838 312.093 983.648 347.877C969.457 383.661 959.277 414.51 953.108 440.422L951.257 443.199C951.257 443.816 950.948 444.741 950.331 445.975C950.331 446.592 950.331 447.209 950.331 447.826V450.602H949.406C950.023 449.986 950.023 450.603 949.406 452.453C949.406 453.687 949.714 454.613 950.331 455.23L949.406 459.857L948.48 462.633L946.629 478.366V481.143C945.396 486.078 944.779 491.322 944.779 496.875C945.395 501.811 945.395 507.055 944.779 512.608V513.533V519.086L943.853 520.937C943.853 520.937 944.162 521.554 944.779 522.788L943.853 524.639C943.853 525.256 943.545 525.873 942.928 526.49C942.928 526.49 942.928 526.798 942.928 527.415C942.928 528.649 942.928 529.883 942.928 531.117C943.545 531.734 943.853 532.659 943.853 533.893L944.779 542.223V546.85V547.775L943.853 553.328L944.779 557.03C944.779 561.966 945.396 566.593 946.629 570.912C947.863 575.847 948.789 580.166 949.406 583.868L948.48 581.092L947.555 579.241L944.779 574.613V575.539L942.928 573.688L943.853 574.613L942.002 572.763H942.928C941.077 569.678 940.151 566.593 940.151 563.508C940.151 561.04 939.843 558.264 939.226 555.179H940.151C938.917 553.945 937.992 550.86 937.375 545.924C937.375 540.989 937.375 537.904 937.375 536.67V534.819C937.375 534.202 937.066 533.893 936.449 533.893C936.449 533.276 936.449 532.659 936.449 532.043C936.449 538.212 936.141 542.839 935.524 545.924C935.524 554.562 936.449 564.433 938.3 575.539C940.151 587.261 942.928 598.058 946.629 607.93C950.948 618.418 956.192 627.056 962.362 633.843C969.149 641.246 977.478 644.948 987.349 644.948C996.604 644.948 1005.24 642.789 1013.26 638.47C1021.28 634.151 1028.69 628.598 1035.47 621.812C1042.26 615.642 1048.43 608.238 1053.98 599.601C1059.53 591.58 1064.78 583.56 1069.71 575.539C1060.46 576.773 1051.82 577.698 1043.8 578.315C1036.4 578.932 1030.23 579.241 1025.29 579.241C1024.68 579.241 1023.44 579.549 1021.59 580.166C1020.36 580.783 1019.12 580.475 1017.89 579.241C1016.66 578.624 1015.42 577.081 1014.19 574.613C1012.95 572.146 1012.34 567.518 1012.34 560.732H1013.26C1013.26 555.179 1012.95 549.935 1012.34 544.999C1012.34 540.063 1012.34 536.053 1012.34 532.968C1012.34 520.629 1015.11 513.842 1020.67 512.608C1026.22 510.757 1039.79 509.832 1061.39 509.832C1072.49 509.832 1086.99 512.608 1104.88 518.161C1122.77 523.096 1138.82 528.341 1153.01 533.893L1154.86 534.819L1158.56 536.67L1159.48 538.521L1160.41 537.595L1162.26 539.446L1164.11 538.521L1167.81 540.372V542.223C1168.43 542.223 1169.05 541.914 1169.66 541.297L1170.59 543.148C1170.59 543.148 1170.9 542.839 1171.51 542.223C1172.13 542.223 1172.44 542.531 1172.44 543.148C1172.44 544.382 1172.75 544.999 1173.37 544.999V544.073C1173.37 544.073 1173.67 543.765 1174.29 543.148L1175.22 544.999L1176.14 544.073C1177.38 544.69 1177.99 545.616 1177.99 546.85C1178.61 548.084 1178.92 548.392 1178.92 547.775V546.85H1179.84C1180.46 548.084 1180.77 551.169 1180.77 556.104V558.881L1179.84 557.955C1179.23 557.955 1178.61 557.647 1177.99 557.03C1177.38 557.647 1177.07 558.264 1177.07 558.881V559.806L1176.14 557.955C1175.53 557.955 1175.22 558.572 1175.22 559.806V560.732C1174.6 560.732 1174.29 560.423 1174.29 559.806C1174.29 559.189 1173.98 558.881 1173.37 558.881C1172.75 558.264 1172.44 558.572 1172.44 559.806C1172.44 561.04 1172.13 561.657 1171.51 561.657V559.806C1170.9 559.806 1170.59 560.115 1170.59 560.732V561.657L1167.81 562.583V561.657L1166.89 560.732V562.583L1165.04 561.657L1163.19 563.508L1162.26 560.732V563.508L1157.63 564.433C1155.17 564.433 1150.85 565.05 1144.68 566.284C1137.89 577.39 1130.18 588.495 1121.54 599.601C1113.52 611.323 1104.57 623.046 1094.7 634.768H1093.78L1091.93 636.619C1091.93 637.236 1092.23 637.544 1092.85 637.544C1091.62 638.161 1091 639.087 1091 640.321C1091 641.555 1090.38 642.48 1089.15 643.097V644.023C1086.68 645.257 1085.45 646.49 1085.45 647.724H1084.52V648.65C1083.29 649.884 1082.05 650.809 1080.82 651.426C1080.2 652.043 1079.28 652.969 1078.04 654.203L1067.86 666.234V665.308C1067.25 666.542 1066.63 667.159 1066.01 667.159C1065.4 667.776 1064.78 668.393 1064.16 669.01C1063.55 669.627 1062.93 669.935 1062.31 669.935V669.01C1062.31 670.244 1061.69 670.861 1060.46 670.861C1059.84 670.861 1059.23 671.478 1058.61 672.712L1053.98 675.488V674.563C1053.37 674.563 1053.06 674.871 1053.06 675.488C1053.06 676.105 1052.75 676.413 1052.13 676.413C1050.9 677.647 1049.35 678.881 1047.5 680.115C1046.27 681.349 1045.04 682.583 1043.8 683.817L1041.95 681.041H1042.88C1042.88 680.424 1042.88 680.115 1042.88 680.115C1043.49 680.115 1043.8 679.807 1043.8 679.19V678.264L1042.88 676.413L1041.95 677.339H1041.03L1040.1 678.264L1042.88 676.413L1043.8 674.563C1042.57 675.797 1040.72 677.031 1038.25 678.264L1037.32 679.19L1035.47 680.115L1032.7 681.966H1030.85C1030.85 682.583 1030.54 682.892 1029.92 682.892C1029.92 682.892 1029.92 683.509 1029.92 684.743L1030.85 686.593L1034.55 682.892L1033.62 681.966L1035.47 682.892V683.817C1036.09 683.817 1036.4 683.509 1036.4 682.892C1036.4 682.892 1036.71 682.892 1037.32 682.892L1039.17 681.041L1042.88 683.817L1041.95 684.743H1040.1C1039.48 684.743 1039.17 684.434 1039.17 683.817V684.743L1037.32 685.668L1036.4 686.593L1030.85 688.444C1025.91 693.38 1019.12 696.465 1010.49 697.699C1001.85 699.55 995.062 700.475 990.126 700.475C983.339 700.475 976.244 699.55 968.84 697.699L966.989 696.774H965.139L964.213 695.848L963.288 696.774C962.671 696.774 962.362 696.465 962.362 695.848C962.362 695.848 962.054 695.848 961.437 695.848L958.66 694.923L956.809 693.997L950.331 691.221L938.3 681.966L936.449 680.115L935.524 678.264C934.907 678.264 934.599 678.573 934.599 679.19C933.982 679.19 933.673 678.881 933.673 678.264L934.599 677.339L930.897 673.637L928.12 668.084L927.195 669.01V668.084V665.308L925.344 664.383C923.493 660.681 921.951 656.979 920.717 653.277H921.642L920.717 654.203L921.642 655.128H925.344H924.419H925.344L927.195 656.054H926.269C927.503 657.287 928.12 657.596 928.12 656.979L930.897 662.532H929.971C929.971 662.532 931.205 663.766 933.673 666.234C934.29 667.467 935.215 668.393 936.449 669.01L942.928 676.413H942.002C942.619 676.413 942.619 676.413 942.002 676.413C942.002 677.03 942.311 677.339 942.928 677.339C944.162 677.339 945.087 677.647 945.704 678.264C946.321 678.881 947.246 679.19 948.48 679.19V680.115C949.097 680.115 950.331 681.041 952.182 682.892L953.108 683.817C953.725 683.817 954.033 683.817 954.033 683.817C954.033 684.434 954.65 684.743 955.884 684.743L958.66 686.593C959.894 686.593 961.128 686.902 962.362 687.519C964.213 688.136 966.064 688.444 967.915 688.444H969.766V689.37H972.542H979.02C964.83 687.519 953.416 680.732 944.779 669.01C936.141 657.904 929.354 644.64 924.419 629.215C919.483 614.408 916.089 599.292 914.239 583.868C912.388 568.444 911.462 555.487 911.462 544.999C911.462 507.364 917.015 463.559 928.12 413.584C939.226 363.61 956.809 312.401 980.871 259.959C990.126 237.748 1001.23 213.069 1014.19 185.922C1027.14 158.159 1041.03 132.554 1055.83 109.11C1071.26 85.0478 1087.61 64.9963 1104.88 48.9551C1122.16 32.2969 1140.05 23.9678 1158.56 23.9678C1172.75 23.9678 1184.16 28.2866 1192.8 36.9241C1202.06 45.5617 1207.92 53.2738 1210.38 60.0605H1211.31V60.986ZM931.822 664.383C932.439 665 932.748 665.308 932.748 665.308L931.822 664.383ZM932.748 667.159L933.673 666.234C933.673 666.85 933.365 667.159 932.748 667.159ZM936.449 672.712L935.524 671.786L936.449 672.712ZM936.449 669.935L935.524 669.01L936.449 669.935ZM942.002 678.264V679.19C941.385 679.19 941.077 678.881 941.077 678.264H942.002ZM937.375 672.712C937.992 672.712 938.609 673.02 939.226 673.637L937.375 672.712ZM941.077 681.041L939.226 680.115L941.077 679.19L942.002 680.115L941.077 681.041ZM942.928 678.264H942.002H942.928ZM950.331 685.668L951.257 686.593C950.64 685.977 950.331 685.668 950.331 685.668ZM951.257 691.221H952.182H951.257ZM952.182 685.668C952.182 685.668 951.874 685.36 951.257 684.743C951.874 684.743 951.874 684.743 951.257 684.743C951.257 685.36 951.565 685.668 952.182 685.668ZM955.884 687.519L954.959 688.444L955.884 687.519ZM972.542 689.37V690.295V689.37ZM1094.7 634.768V633.843V634.768ZM1084.52 644.023V645.874L1083.6 646.799V647.724L1081.75 646.799L1084.52 644.023ZM1079.9 650.501C1079.9 650.501 1080.2 650.809 1080.82 651.426V650.501H1079.9ZM1080.82 649.575L1079.9 650.501V649.575H1080.82ZM1072.49 658.83V659.755V658.83ZM1070.64 656.054L1073.42 655.128L1071.57 657.904H1072.49L1071.57 658.83L1069.71 656.979C1070.33 656.979 1070.64 656.67 1070.64 656.054ZM1067.86 661.606L1066.94 663.457L1067.86 661.606ZM1059.53 668.084H1061.39H1059.53ZM1048.43 671.786C1050.9 670.552 1052.44 669.627 1053.06 669.01L1053.98 671.786L1048.43 672.712V671.786ZM1048.43 678.264V677.339V678.264ZM1027.14 682.892L1028.07 684.743V686.593H1024.37L1023.44 684.743C1024.68 683.509 1025.91 682.892 1027.14 682.892ZM1017.89 685.668C1015.42 686.902 1014.19 687.519 1014.19 687.519C1014.8 687.519 1015.11 687.21 1015.11 686.593C1015.11 686.593 1015.42 686.593 1016.04 686.593L1017.89 685.668ZM1010.49 688.444C1009.25 688.444 1008.63 689.061 1008.63 690.295L1011.41 692.146L1013.26 691.221L1012.34 690.295H1014.19C1014.19 690.295 1014.8 690.604 1016.04 691.221L1016.96 690.295H1016.04L1017.89 689.37L1016.96 688.444L1015.11 686.593L1014.19 687.519L1012.34 689.37L1011.41 687.519L1010.49 688.444ZM995.679 694.923V693.997H991.977L992.902 696.774L995.679 695.848V694.923ZM989.2 690.295L991.977 691.221H993.828V693.072H996.604V691.221L997.53 692.146V691.221L996.604 690.295H994.753H989.2ZM987.349 697.699H989.2L991.977 696.774H989.2L987.349 697.699ZM987.349 690.295C987.349 690.912 987.041 690.912 986.424 690.295C985.807 689.678 985.499 689.987 985.499 691.221C986.116 691.221 986.732 690.912 987.349 690.295ZM980.871 690.295H982.722C982.722 690.912 982.105 691.221 980.871 691.221V690.295ZM937.375 523.713V527.415V522.788V523.713ZM937.375 534.819V533.893L938.3 535.744L937.375 534.819ZM939.226 547.775V548.701V547.775ZM939.226 543.148H938.3V544.073L939.226 543.148ZM939.226 531.117V529.266L940.151 531.117H939.226ZM940.151 511.683C940.151 511.066 939.843 510.449 939.226 509.832C939.226 509.832 939.534 510.14 940.151 510.757V511.683ZM941.077 510.757V508.906L942.002 507.981V512.608L941.077 510.757ZM946.629 477.441L945.704 478.366L946.629 477.441ZM1081.75 453.379V452.453L1080.82 453.379H1081.75ZM1084.52 452.453L1083.6 451.528H1084.52V452.453ZM1088.22 449.677L1089.15 448.752L1088.22 449.677ZM1091.93 450.602L1092.85 449.677L1091.93 450.602ZM1095.63 445.975L1093.78 447.826L1095.63 445.975ZM1102.11 441.348C1102.11 441.348 1102.41 441.656 1103.03 442.273V441.348H1102.11ZM1105.81 444.124L1103.96 445.975V443.199L1104.88 442.273L1105.81 443.199V444.124ZM1115.99 432.093V431.168V433.019V432.093ZM1120.61 426.541V425.615V426.541ZM1121.54 432.093L1122.47 431.168L1121.54 432.093ZM1134.5 405.255H1133.57H1134.5ZM1153.01 383.044L1151.16 385.821V389.522L1152.08 387.672L1153.01 385.821V383.044ZM1154.86 380.268L1153.01 382.119L1151.16 381.193L1153.93 376.566L1155.78 377.492L1154.86 380.268ZM1167.81 349.728H1166.89V346.952H1165.04C1164.42 347.569 1164.11 348.185 1164.11 348.802C1164.11 348.802 1163.8 349.111 1163.19 349.728L1164.11 350.653L1163.19 354.355H1161.34V356.206C1160.72 356.823 1160.41 357.44 1160.41 358.057L1161.34 358.982C1161.34 359.599 1161.64 359.908 1162.26 359.908L1163.19 358.982L1164.11 358.057L1165.96 354.355H1164.11L1165.04 353.43C1166.27 353.43 1166.89 352.813 1166.89 351.579V350.653L1167.81 349.728ZM1175.22 333.995L1172.44 337.697H1169.66C1170.9 335.229 1171.82 333.07 1172.44 331.219L1173.37 333.07H1174.29L1175.22 333.995ZM1187.25 305.306V304.381V305.306Z" fill="black"/>
<path d="M795.94 415.433C797.174 414.816 798.408 415.125 799.642 416.359C801.493 416.976 802.418 417.901 802.418 419.135C802.418 419.752 802.11 420.369 801.493 420.986C800.876 420.986 800.259 421.603 799.642 422.837V424.688C799.642 425.305 799.95 425.613 800.567 425.613C800.567 426.23 800.259 426.539 799.642 426.539C799.025 426.539 798.716 426.847 798.716 427.464C798.099 427.464 798.099 427.773 798.716 428.39C799.333 429.007 799.333 429.624 798.716 430.241C798.716 430.858 798.408 431.166 797.791 431.166C797.174 431.166 796.865 431.475 796.865 432.092C796.249 433.326 796.249 434.251 796.865 434.868C797.482 435.485 797.482 436.102 796.865 436.719L795.94 437.644V439.495L794.089 445.048C794.089 445.665 793.781 445.973 793.164 445.973C792.547 445.973 792.238 446.282 792.238 446.899C792.238 447.516 792.547 448.133 793.164 448.75L792.238 451.526L791.313 455.228V456.154C790.696 456.77 789.77 457.079 788.536 457.079C788.536 457.696 788.845 458.313 789.462 458.93C790.079 458.93 790.387 459.238 790.387 459.855L789.462 462.632L787.611 469.11C783.909 481.449 779.282 495.331 773.729 510.755C771.878 514.457 770.027 518.467 768.176 522.786C766.326 526.488 763.858 530.807 760.773 535.743C758.922 538.21 757.071 540.678 755.22 543.146C753.986 546.231 749.976 549.007 743.189 551.475C741.338 553.326 739.796 554.56 738.562 555.177V556.103C735.477 557.337 731.467 557.337 726.531 556.103C726.531 555.486 726.839 555.177 727.456 555.177C728.073 555.794 727.765 555.794 726.531 555.177C726.531 555.177 725.914 555.177 724.68 555.177C724.063 553.943 723.446 553.018 722.829 552.401C722.829 551.784 722.829 550.858 722.829 549.624C718.51 547.157 715.425 544.072 713.575 540.37L709.873 529.264C708.639 526.18 708.022 522.786 708.022 519.084C708.022 515.383 708.022 511.989 708.022 508.904C703.703 515.691 698.767 524.02 693.215 533.892C687.662 543.146 679.641 549.933 669.153 554.252C665.451 557.954 660.207 559.804 653.42 559.804H656.196L655.271 558.879H657.122C658.356 558.879 659.59 558.262 660.824 557.028L661.749 557.954L664.525 556.103C665.142 556.103 665.451 555.794 665.451 555.177C665.451 555.177 665.759 555.177 666.376 555.177H662.675L661.749 556.103L662.675 555.177H658.973L659.898 556.103L658.047 557.028C658.047 556.411 657.122 556.103 655.271 556.103H653.42V557.028H651.569H650.644L649.718 557.954L650.644 558.879C650.644 559.496 651.569 559.804 653.42 559.804H651.569C649.101 558.57 646.633 557.028 644.165 555.177C642.315 553.943 640.155 552.709 637.687 551.475V550.55H636.762C630.592 546.848 626.273 542.221 623.805 536.668C620.721 530.498 618.87 524.946 618.253 520.01C614.551 503.969 613.008 490.087 613.625 478.364C613.625 451.835 616.402 426.539 621.955 402.477C627.507 378.415 635.219 356.513 645.091 336.77C655.579 316.41 665.759 299.135 675.631 284.944C686.119 270.137 695.682 258.723 704.32 250.702C713.575 242.682 720.053 238.055 723.755 236.821C726.222 235.587 728.69 234.97 731.158 234.97C736.094 234.97 740.721 238.98 745.04 247.001C748.742 254.404 750.593 259.957 750.593 263.659C750.593 267.361 749.359 270.137 746.891 271.988C743.806 275.073 739.796 278.775 734.86 283.093C730.541 286.795 724.989 292.656 718.202 300.677C712.032 308.698 704.937 319.495 696.916 333.068C689.513 346.024 681.492 363.608 672.855 385.819C669.77 393.223 666.685 401.86 663.6 411.732C661.132 421.603 658.664 432.092 656.196 443.197C654.345 454.303 652.803 465.716 651.569 477.439C650.952 488.544 651.261 499.65 652.495 510.755C653.112 517.542 654.345 521.552 656.196 522.786C658.047 524.02 658.973 524.329 658.973 523.712C662.058 521.861 665.451 518.467 669.153 513.532C673.471 508.596 677.173 503.66 680.258 498.724C687.045 488.236 693.215 477.747 698.767 467.259C704.32 456.77 709.564 446.899 714.5 437.644V436.719C715.117 433.017 715.734 429.315 716.351 425.613C716.968 421.912 717.585 418.21 718.202 414.508C721.904 397.233 725.914 380.883 730.233 365.459C734.552 350.035 738.562 336.461 742.264 324.739C746.582 312.399 750.284 302.528 753.369 295.124C757.071 287.104 759.847 282.168 761.698 280.317C762.315 278.466 763.858 277.232 766.325 276.615C768.176 275.998 770.336 275.998 772.804 276.615C775.272 276.615 778.973 278.158 783.909 281.242C795.632 289.88 800.567 296.05 798.716 299.752C797.482 302.836 795.94 306.847 794.089 311.782C792.855 316.101 790.696 322.271 787.611 330.292C785.143 337.695 782.058 347.258 778.356 358.981C774.655 370.086 770.644 384.276 766.325 401.552C763.241 414.508 759.23 429.624 754.295 446.899C749.359 464.174 745.348 482.066 742.264 500.575C742.264 503.043 741.955 505.511 741.338 507.979C741.338 509.83 741.338 511.989 741.338 514.457C746.274 507.053 750.593 499.341 754.295 491.321C758.613 483.3 762.624 475.896 766.325 469.11V468.184L768.176 465.408L769.102 462.632V461.706L770.953 458.004C770.953 457.387 770.953 457.079 770.953 457.079C771.57 456.462 771.878 455.845 771.878 455.228L772.804 454.303L773.729 452.452H774.655L775.58 449.675H774.655C775.889 447.207 777.122 444.74 778.356 442.272C779.59 439.804 780.824 437.644 782.058 435.793V436.719H781.133V437.644V438.57L782.984 437.644C783.601 437.027 783.601 436.719 782.984 436.719C782.984 436.102 783.292 435.485 783.909 434.868L782.984 433.943L783.909 433.017C784.526 431.783 784.835 431.166 784.835 431.166C785.452 430.549 785.452 430.549 784.835 431.166L788.536 427.464V425.613L790.387 423.763L791.313 420.986C791.93 419.752 792.855 418.518 794.089 417.284C794.706 416.667 795.323 416.359 795.94 416.359H795.015L795.94 415.433ZM784.835 431.166V432.092V431.166Z" fill="black"/>
<path d="M624.803 258.107C629.739 262.426 632.515 267.053 633.132 271.989C634.366 276.308 634.983 279.393 634.983 281.243C634.366 297.285 631.898 312.092 627.579 325.665C623.877 338.622 620.484 351.27 617.399 363.609C608.762 395.074 602.592 423.455 598.89 448.751C595.188 474.047 593.337 494.098 593.337 508.905C593.337 519.394 593.954 526.181 595.188 529.265C596.422 532.35 597.039 534.201 597.039 534.818C597.039 534.201 596.422 534.818 595.188 536.669C594.571 539.137 593.029 541.913 590.561 544.998C588.093 548.083 585.008 550.859 581.306 553.327C578.222 555.795 574.211 557.029 569.276 557.029C562.489 557.029 557.245 551.476 553.543 540.371C550.458 529.265 548.916 516.001 548.916 500.576C548.916 483.918 551.383 460.782 556.319 431.167C561.872 401.553 571.743 364.843 585.934 321.038C585.934 320.421 585.934 320.113 585.934 320.113C586.551 319.496 586.859 318.879 586.859 318.262C574.52 331.835 564.648 345.717 557.245 359.907C549.841 373.48 541.82 387.362 533.183 401.553L531.332 403.403C531.332 404.02 531.023 404.637 530.406 405.254C530.406 405.254 530.406 405.563 530.406 406.18L528.555 408.956V408.031V408.956V410.807V411.733L525.779 417.285L522.077 425.614C518.375 449.059 515.599 470.962 513.748 491.322C511.897 511.065 510.972 526.181 510.972 536.669C510.972 542.839 511.28 546.232 511.897 546.849C511.897 547.466 510.972 548.7 509.121 550.551C507.27 553.019 499.558 554.253 485.985 554.253C474.262 554.253 468.401 551.476 468.401 545.924C467.784 540.988 467.475 533.276 467.475 522.787C467.475 512.916 468.401 498.725 470.252 480.216L468.401 486.694L467.475 485.769L468.401 487.62L461.923 499.651L460.997 502.427V501.502L460.072 502.427C460.072 502.427 460.38 502.736 460.997 503.353H459.146L457.295 507.055L455.445 510.756L452.668 514.458L450.817 515.384H451.743C448.041 520.319 445.265 523.404 443.414 524.638V523.713L445.265 522.787L444.339 520.011L443.414 519.085L444.339 518.16C444.339 517.543 444.031 517.234 443.414 517.234L444.339 516.309L447.115 511.682L448.041 512.607V511.682C448.041 510.448 448.349 509.214 448.966 507.98C449.583 506.129 450.509 504.895 451.743 504.278L455.445 495.949V496.874C455.445 496.257 455.753 496.257 456.37 496.874C456.37 496.874 456.37 496.566 456.37 495.949C456.987 495.949 456.678 495.332 455.445 494.098C456.678 492.864 457.295 491.63 457.295 490.396C456.062 491.63 455.445 492.556 455.445 493.173L453.594 496.874L449.892 502.427L447.115 506.129L444.339 509.831L440.637 515.384L437.861 519.085L436.01 520.936L433.234 524.638L430.457 527.414C428.606 529.265 427.372 530.191 426.755 530.191H425.83H426.755L425.83 531.116C423.362 531.116 422.128 529.574 422.128 526.489C422.745 526.489 423.362 526.181 423.979 525.564C424.596 524.947 424.905 524.021 424.905 522.787L426.755 521.862L428.606 519.085V515.384H430.457L432.308 509.831L433.234 507.055L435.085 502.427L437.861 500.576L436.935 499.651L439.712 492.247C446.499 478.674 453.285 462.324 460.072 443.198C466.858 423.455 473.337 403.403 479.506 383.043C486.293 362.066 492.463 341.707 498.015 321.963C504.185 301.603 510.046 284.02 515.599 269.213C518.684 256.256 520.535 246.076 521.152 238.672C521.769 230.652 526.396 226.642 535.034 226.642C547.373 226.642 556.011 228.801 560.946 233.12C566.499 237.439 569.276 240.523 569.276 242.374C569.276 247.927 567.116 256.256 562.797 267.362C558.479 278.467 552.617 296.359 545.214 321.038C547.065 317.953 548.916 315.177 550.766 312.709C552.617 309.624 554.468 306.539 556.319 303.454C558.787 300.37 561.563 296.051 564.648 290.498C568.35 284.328 572.36 278.467 576.679 272.914C580.998 267.362 585.625 262.734 590.561 259.033C596.114 254.714 602.283 252.554 609.07 252.554C612.772 252.554 618.016 254.405 624.803 258.107ZM449.892 507.98H450.817H449.892ZM451.743 505.204V504.278V505.204ZM454.519 504.278V503.353V504.278ZM460.072 485.769L460.997 484.844H460.072V485.769ZM460.072 496.874V495.949L459.146 496.874L460.072 498.725L460.997 496.874H460.072ZM461.923 485.769V486.694V485.769ZM463.774 482.067H464.699H463.774ZM467.475 485.769V484.844V485.769Z" fill="black"/>
<path d="M437.254 208.132L438.179 203.505C438.179 202.888 438.179 202.58 438.179 202.58C438.796 201.963 439.105 201.346 439.105 200.729V198.878C439.105 198.261 439.105 197.644 439.105 197.027C439.722 196.41 440.03 195.484 440.03 194.25L441.881 196.101V197.952V201.654H440.03L440.955 202.58C440.955 203.813 441.264 204.43 441.881 204.43L444.657 205.356L442.806 200.729L441.881 201.654L443.732 199.803C443.732 199.803 444.04 199.495 444.657 198.878V197.027C444.657 195.176 444.966 193.942 445.583 193.325L444.657 192.4H442.806C442.806 193.016 442.498 193.325 441.881 193.325V194.25L442.806 191.474L441.881 187.772L443.732 177.592C444.349 176.975 444.966 176.667 445.583 176.667V175.741L446.508 173.89L448.359 169.263C448.359 163.71 449.902 158.466 452.986 153.53C456.071 147.978 459.465 143.042 463.166 138.723C466.868 134.404 470.57 131.011 474.272 128.543C477.974 126.075 480.442 124.841 481.676 124.841C486.611 124.841 490.005 127.309 491.856 132.245C494.323 136.564 496.174 142.425 497.408 149.829V150.754L499.259 153.53L497.408 151.679V156.307L500.185 158.158L499.259 166.487L500.185 167.412L499.259 166.487V167.412C499.876 167.412 500.185 167.721 500.185 168.338L499.259 172.965V176.667L498.334 182.22C497.1 184.687 495.866 187.464 494.632 190.549C494.015 193.016 493.398 194.867 492.781 196.101V194.25V192.4L491.856 189.623L489.079 197.952L490.93 197.027V198.878V199.803V200.729C490.93 200.729 490.622 200.42 490.005 199.803V200.729C490.005 200.729 490.313 201.037 490.93 201.654V200.729V202.58H490.005C490.622 202.58 490.93 202.888 490.93 203.505L490.005 202.58L488.154 201.654C487.537 202.271 487.228 202.888 487.228 203.505C487.228 203.505 486.92 203.813 486.303 204.43L488.154 206.281L489.079 208.132L488.154 207.207C488.771 207.824 489.079 208.749 489.079 209.983L486.303 213.685V214.61L484.452 220.163C483.835 221.397 483.218 222.94 482.601 224.79C481.984 226.641 481.367 227.875 480.75 228.492L479.825 227.567V228.492H478.899C479.516 228.492 479.825 229.109 479.825 230.343C478.591 231.577 477.974 232.811 477.974 234.045C477.974 235.279 477.048 236.513 475.197 237.747H474.272L470.57 242.374C468.719 246.076 465.943 248.235 462.241 248.852H461.316C458.848 250.086 456.997 250.703 455.763 250.703C453.295 250.703 451.136 249.778 449.285 247.927L450.21 247.001L449.285 246.076C448.668 246.076 448.359 246.384 448.359 247.001C447.125 243.916 445.891 242.066 444.657 241.449C443.423 240.832 442.498 239.906 441.881 238.672H442.806L441.881 236.821H443.732L442.806 234.045L441.881 233.12L440.955 234.97C439.722 232.503 439.105 230.96 439.105 230.343L438.179 225.716C438.179 225.099 437.871 224.79 437.254 224.79C437.254 224.173 437.254 223.248 437.254 222.014C437.254 220.78 437.254 219.855 437.254 219.238C437.871 218.621 438.179 217.695 438.179 216.461L437.254 209.983L441.881 209.058L442.806 206.281H440.955L438.179 205.356V208.132H437.254ZM441.881 221.089L442.806 219.238L440.955 220.163V219.238C442.189 219.238 442.806 218.621 442.806 217.387H440.955V216.461L440.03 215.536L438.179 217.387V218.312L440.03 220.163L438.179 221.089L439.105 222.014C439.105 223.248 439.413 223.865 440.03 223.865L441.881 222.014V221.089ZM500.185 161.859L499.259 162.785C499.259 162.168 499.568 161.859 500.185 161.859ZM498.334 172.965C498.951 172.965 499.259 172.656 499.259 172.04C498.642 172.04 498.334 172.348 498.334 172.965C498.951 172.965 498.951 172.965 498.334 172.965ZM499.259 161.859H498.334H499.259ZM496.483 165.561L497.408 164.636H496.483V165.561ZM495.557 176.667L497.408 177.592L495.557 173.89V176.667ZM494.632 180.369H496.483L494.632 178.518V180.369ZM485.377 215.536V216.461V215.536ZM485.377 218.312C484.76 218.312 484.452 218.004 484.452 217.387L485.377 218.312ZM483.526 221.089H484.452L483.526 220.163V221.089ZM475.197 227.567L476.123 228.492V227.567L477.048 226.641L476.123 225.716L475.197 226.641V227.567ZM458.539 247.927V248.852V247.927ZM447.434 236.821V238.672L449.285 239.598V237.747L447.434 236.821ZM446.508 184.07V181.294L443.732 180.369L444.657 185.921L446.508 184.07ZM443.732 234.045L444.657 237.747L447.434 235.896L446.508 234.97H447.434L446.508 233.12L445.583 234.045H443.732ZM377.099 533.892C375.865 527.723 375.248 522.478 375.248 518.16C374.631 513.224 374.323 508.288 374.323 503.352C373.706 484.843 374.94 466.643 378.025 448.751C381.109 430.858 384.194 413.583 387.279 396.925C395.917 349.418 404.554 314.868 413.192 293.274C422.446 271.063 429.542 259.958 434.477 259.958C438.796 259.958 442.498 261.192 445.583 263.66C449.285 266.127 452.369 268.904 454.837 271.989C457.922 274.457 460.082 276.924 461.316 279.392C463.166 281.86 464.092 283.094 464.092 283.094C464.092 288.03 461.007 297.593 454.837 311.783C449.285 325.973 442.498 350.035 434.477 383.969C432.626 392.606 429.85 402.786 426.148 414.509C423.063 425.614 419.67 437.337 415.968 449.676C412.883 462.015 410.107 474.663 407.639 487.62C405.788 499.959 404.863 511.373 404.863 521.861C404.863 523.095 404.863 524.329 404.863 525.563C405.48 526.797 405.788 528.031 405.788 529.265C407.639 527.414 411.958 524.021 418.745 519.085C426.148 514.149 431.084 509.522 433.552 505.203L440.03 498.725L444.657 495.949L446.508 492.247L448.359 490.396L449.285 489.471L452.986 485.769H452.061C455.146 482.684 458.539 478.674 462.241 473.738L461.316 475.589L460.39 477.44L462.241 476.514L464.092 473.738V471.887C464.092 471.27 464.4 470.653 465.017 470.036H465.943C465.943 470.036 465.634 470.344 465.017 470.961L465.943 470.036L466.868 469.111V470.036C466.868 470.036 467.177 469.419 467.794 468.185V469.111L470.57 466.334C471.187 465.1 471.804 464.483 472.421 464.483C473.038 463.866 473.655 463.249 474.272 462.632C474.889 462.015 475.506 461.707 476.123 461.707H475.197L476.123 460.781H477.048C478.282 460.781 479.516 461.09 480.75 461.707C481.984 462.324 482.601 463.249 482.601 464.483C482.601 465.1 481.676 466.026 479.825 467.26C478.591 467.877 477.974 468.802 477.974 470.036C477.974 470.653 478.282 471.27 478.899 471.887C478.899 471.27 477.974 471.887 476.123 473.738V475.589C476.123 474.355 476.123 474.663 476.123 476.514C476.123 478.365 474.889 480.524 472.421 482.992L471.496 485.769L465.943 491.321L464.092 495.949L461.316 500.576C461.316 501.193 461.007 501.501 460.39 501.501C459.773 500.884 459.465 500.884 459.465 501.501V503.352L453.912 511.681C452.061 514.766 449.593 518.777 446.508 523.712C443.423 528.031 439.722 532.35 435.403 536.669C431.084 541.604 426.148 545.923 420.595 549.625C415.66 553.327 409.799 555.486 403.012 556.103C398.693 556.103 394.066 554.561 389.13 551.476C384.811 549.008 382.035 546.232 380.801 543.147L377.099 533.892ZM466.868 470.036C465.634 471.27 465.017 471.887 465.017 471.887L465.943 472.812V471.887H466.868V470.961V470.036Z" fill="black"/>
<path d="M121.873 666.086L120.865 669.105L121.873 665.079V666.086ZM122.88 679.17L121.873 682.189C121.201 683.531 120.865 684.537 120.865 685.208C120.865 685.879 120.53 686.215 119.858 686.215H118.851C118.851 685.544 118.851 684.873 118.851 684.202C119.523 684.202 119.858 683.866 119.858 683.195L118.851 688.228H117.844V690.24L116.837 685.208V684.202C117.508 684.202 117.844 684.537 117.844 685.208C117.844 685.879 118.18 686.215 118.851 686.215C118.851 685.544 118.851 684.537 118.851 683.195C119.523 682.524 119.858 681.854 119.858 681.183L118.851 683.195C119.523 683.195 119.187 682.524 117.844 681.183V682.189L118.851 678.163C118.851 677.492 118.515 677.157 117.844 677.157C117.844 677.157 118.515 676.15 119.858 674.137L118.851 675.144L119.858 677.157L120.865 678.163L122.88 679.17ZM122.88 674.137L123.887 680.176L122.88 679.17L119.858 677.157L118.851 675.144L119.858 674.137V671.118L121.873 666.086L122.88 663.067V666.086L123.887 664.073L124.894 670.112L123.887 673.131L122.88 674.137ZM132.952 641.931H134.966L133.959 646.964H131.945L132.952 641.931ZM106.765 468.824L108.779 466.812L106.765 469.831V468.824ZM105.757 459.766V456.747V454.734L106.765 453.728L107.772 452.721C107.772 452.721 108.107 452.05 108.779 450.709L109.786 454.734H108.779C108.779 454.734 108.443 454.399 107.772 453.728V457.754V455.741C108.443 455.741 108.779 456.412 108.779 457.754V456.747L109.786 459.766H108.779V461.779L106.765 459.766H105.757ZM104.75 463.792V465.805V469.831L105.757 468.824V470.837L108.779 466.812V463.792V461.779L106.765 459.766L103.743 458.76L105.757 462.786L104.75 463.792ZM62.4472 493.985L64.4616 492.979L63.4544 493.985L62.4472 494.992L61.4399 493.985H62.4472ZM94.6779 478.889L93.6707 477.882L91.6563 479.895L92.6635 480.902L94.6779 478.889ZM152.089 582.552V583.558L154.103 579.532C153.432 580.203 153.096 580.539 153.096 580.539C153.096 581.21 152.761 581.881 152.089 582.552ZM137.988 618.783H138.995L137.988 620.796L135.974 622.809L136.981 618.783H137.988ZM333.639 633.637L335.654 632.631L333.639 634.643V633.637ZM338.675 626.592V629.611V630.618C339.347 629.947 339.682 628.94 339.682 627.598C340.354 627.598 340.69 627.934 340.69 628.605L342.704 625.586L341.697 626.592V624.579L340.69 625.586C340.69 623.573 341.697 622.566 343.711 622.566V624.579L345.726 620.553C344.383 621.224 343.711 621.56 343.711 621.56L340.69 623.573C342.033 622.231 342.704 621.56 342.704 621.56C343.375 621.56 342.368 622.231 339.682 623.573L337.668 625.586L338.675 626.592ZM334.646 627.598L332.632 629.611L331.625 633.637L332.632 634.643L331.625 635.65L333.639 633.637L336.661 631.624L338.675 630.618V627.598L337.668 625.586L336.661 623.573L335.654 627.598H334.646ZM290.329 536.013L288.315 539.032V543.058H290.329L291.336 539.032V537.019L290.329 536.013ZM288.315 638.669L290.329 637.663L291.336 640.682L289.322 639.676L288.315 638.669ZM291.336 548.09L290.329 552.116V548.09L289.322 544.064L291.336 547.083V548.09ZM318.531 639.676L317.524 637.663L314.502 639.676L315.509 640.682L318.531 639.676ZM402.99 97.2065C414.405 101.232 417.322 103.489 424.708 106.844C432.766 109.528 441.6 118.891 439.186 122.275C439.186 122.275 439.186 128.528 436.773 133.347C434.36 138.166 419.714 161.862 408.97 184.675C398.898 207.487 388.49 231.306 377.747 256.131C367.003 280.286 380.726 252.441 370.654 278.608C360.582 304.775 351.181 330.607 342.452 356.104L341.445 359.123C341.445 360.465 341.109 362.142 340.438 364.155C339.766 365.497 339.095 366.839 338.423 368.181V369.187L336.409 377.239C331.037 393.342 298.051 507.833 295.365 527.961C293.351 548.09 291.336 566.877 289.322 584.322L288.315 587.341C288.315 588.012 287.979 588.683 287.307 589.354C287.307 589.354 287.307 589.689 287.307 590.36H288.315L287.307 593.38C287.979 593.38 287.979 594.051 287.307 595.392C287.307 596.063 287.643 596.399 288.315 596.399V601.431V603.444V615.521L289.322 617.534C289.322 621.56 289.657 625.25 290.329 628.605C291 631.96 292.008 635.315 293.351 638.669L295.365 640.682L296.372 642.695H297.379L303.423 643.701C304.094 643.701 304.43 643.701 304.43 643.701C305.101 644.372 305.773 644.708 306.444 644.708L307.452 643.701C307.452 643.701 308.794 643.03 311.48 641.689L315.509 639.676V640.682L318.531 638.669C321.888 637.327 324.91 635.314 327.596 632.631C330.953 629.947 333.639 627.934 335.654 626.592L334.646 627.598L332.632 629.611L331.625 633.637H332.632L331.625 635.65V634.643V636.656L330.617 635.65C329.946 636.321 329.61 636.656 329.61 636.656C329.61 637.327 329.274 637.998 328.603 638.669C327.931 639.34 327.596 640.011 327.596 640.682C334.311 635.985 340.354 631.289 345.726 626.592C351.769 621.895 355.462 619.547 356.805 619.547H357.812H358.819C360.162 619.547 361.841 620.218 363.855 621.56C365.87 622.902 366.877 624.244 366.877 625.586C366.877 626.256 366.541 626.927 365.87 627.598C365.198 628.269 363.52 630.618 360.834 634.643C358.148 638.669 354.119 643.03 348.747 647.727C344.047 652.424 337.668 656.45 329.61 659.804C322.224 663.83 313.495 665.843 303.423 665.843C289.993 665.843 279.921 662.153 273.206 654.772C266.492 647.392 261.791 639.34 259.105 630.618C256.419 621.224 254.741 612.502 254.069 604.45C254.069 595.728 254.069 590.36 254.069 588.347C254.069 554.129 286.72 422.193 294.106 385.29C302.164 347.717 311.229 311.485 321.301 276.595C295.785 322.891 270.269 368.852 244.753 414.477C219.908 459.431 196.742 500.695 175.255 538.269L174.248 541.288L173.241 543.301L166.19 557.391H167.197L154.103 585.571L152.089 590.603V589.597L151.082 591.61V592.616V593.622L150.075 594.629L146.046 603.687L145.039 606.706V609.725L143.024 610.732L140.003 621.803L137.988 630.861C137.988 631.532 137.317 633.209 135.974 635.893L136.981 636.899H135.974L133.959 641.931L131.945 646.964H132.952C131.609 652.331 129.93 657.363 127.916 662.06C126.573 667.428 125.23 672.125 123.887 676.15V673.131L124.894 670.112L123.887 664.073L122.88 665.079V663.067V664.073V661.054C123.551 659.712 123.551 659.041 122.88 659.041C122.88 659.041 123.216 658.37 123.887 657.028C119.858 669.776 116.837 679.17 114.822 685.208C112.808 691.247 111.465 695.273 110.793 697.285C110.122 699.298 109.45 699.969 108.779 699.298C108.107 699.298 107.1 699.298 105.757 699.298C103.743 699.298 102.064 698.627 100.721 697.285C100.05 696.614 99.714 695.608 99.714 694.266C99.714 687.557 102.064 672.125 106.765 647.97C112.136 623.816 118.851 593.958 126.909 558.397C134.966 523.508 143.36 484.592 152.089 441.651C161.49 398.709 169.883 355.097 177.269 310.814C182.641 276.595 187.677 242.041 192.378 207.151C197.078 171.59 199.428 139.72 199.428 111.54C199.428 104.83 199.092 98.4559 198.421 92.4173C198.421 86.3786 198.085 80.6755 197.414 75.3078C192.042 80.0045 185.999 86.3786 179.284 94.4301C173.241 102.482 168.54 108.185 165.183 111.54C148.396 133.681 132.281 159.513 116.837 189.035C101.393 217.886 87.6275 248.079 75.5409 279.614C63.4544 311.149 53.718 342.349 46.3318 373.213C39.617 403.406 36.2596 430.58 36.2596 454.734V457.754V458.76C36.2596 460.102 36.5954 460.773 37.2668 460.773L38.2741 462.786H37.2668C37.9383 462.786 38.2741 463.457 38.2741 464.799C38.2741 465.47 38.6098 465.805 39.2813 465.805L40.2885 470.837V472.85L41.2957 473.857H40.2885L46.3318 481.908L45.3245 482.915L47.339 483.921V482.915C49.3534 484.927 51.3678 486.94 53.3823 488.953C56.0681 490.966 58.7541 491.972 61.4399 491.972C62.1114 491.972 62.4472 491.972 62.4472 491.972C63.1186 491.302 63.7901 490.966 64.4616 490.966H65.4688L69.4977 489.96L70.5049 490.966C70.5049 490.295 70.8406 489.96 71.5121 489.96H73.5265H74.5337C75.2052 489.96 76.8839 489.289 79.5698 487.947L85.613 484.927H86.6203C87.2917 484.927 87.9632 484.592 88.6347 483.921L91.6563 480.902L94.6779 478.889C97.3638 476.876 99.3783 474.192 100.721 470.837C102.736 467.482 104.079 464.463 104.75 461.779V463.792V465.805V469.831L105.757 468.824V470.837L104.75 471.844V474.863C104.75 476.205 103.743 477.882 101.728 479.895C99.714 481.908 98.3711 483.25 97.6996 483.921H96.6924C96.6924 486.605 95.3494 488.953 92.6635 490.966C89.9776 492.308 86.6203 493.65 82.5914 494.992C79.234 496.334 75.5409 497.34 71.5121 498.011C68.1547 498.682 65.8045 499.017 64.4616 499.017C64.4616 499.017 64.1258 498.682 63.4544 498.011C63.4544 498.011 63.7901 498.347 64.4616 499.017H63.4544C62.7829 499.017 62.1114 499.353 61.4399 500.024C58.7541 500.024 55.3967 499.353 51.3678 498.011V497.005C49.3534 497.005 46.3318 495.663 42.3029 492.979V490.966C40.96 490.295 39.617 488.953 38.2741 486.94C36.9311 484.927 35.5882 482.914 34.2452 480.902C39.617 499.688 49.6891 509.082 64.4616 509.082C68.4904 509.082 72.1835 508.746 75.5409 508.075C78.8983 506.734 81.5842 505.392 83.5986 504.05C94.3422 498.011 102.4 491.302 107.772 483.921C113.144 476.54 116.837 469.831 118.851 463.792C120.865 457.083 121.873 451.715 121.873 447.689C121.873 442.993 122.208 440.644 122.88 440.644C122.88 439.973 123.216 439.302 123.887 438.631C125.23 437.289 126.909 436.283 128.923 435.612C133.623 435.612 135.638 437.289 134.966 440.644C134.966 443.999 134.966 446.347 134.966 447.689C134.966 452.386 133.623 459.431 130.938 468.824C128.923 477.547 125.23 486.269 119.858 494.992C114.486 503.714 106.764 511.43 96.6924 518.14C87.2917 524.849 75.2052 528.204 60.4327 528.204C38.9455 528.204 23.5016 520.153 14.101 504.05C4.70033 487.276 0 466.141 0 440.644C0 416.49 2.6859 391.664 8.0577 366.168C14.101 340.001 19.8085 316.853 25.1803 296.724C34.581 255.795 46.6675 216.88 61.4399 179.977C76.2124 142.404 91.3206 109.862 106.765 82.3529C110.122 76.3143 114.822 69.2692 120.865 61.2177C126.909 53.1662 132.952 45.7857 138.995 39.0761C145.039 32.3666 150.075 26.6634 154.103 21.9667C158.804 17.27 161.49 14.9217 162.161 14.9217C166.861 11.5669 172.233 8.54756 178.277 5.86372C184.991 2.50894 192.378 0.831543 200.435 0.831543C223.937 0.831543 239.717 8.88304 247.774 24.986C255.832 40.418 259.861 59.8758 259.861 83.3593C259.861 95.4366 258.854 107.514 256.839 119.591C255.496 131.668 254.153 142.404 252.81 151.797C243.41 216.88 230.316 280.956 213.529 344.026C196.742 406.425 181.298 464.463 167.197 518.14L165.183 522.166C165.183 522.836 164.847 523.507 164.176 524.178C164.176 524.849 164.176 525.52 164.176 526.191C176.934 498.011 192.7 460.719 203.115 432.109C213.529 403.5 223.423 380.937 232.677 358.123C241.932 335.309 247.774 319.915 258.5 290.5C269.226 261.085 275.786 250.464 291.336 207.151C306.886 163.838 323.5 132.725 327 127.5C330.5 122.275 333.954 118.708 340.249 111.663C346.544 104.618 349.901 102.025 357.141 97.2065C364.38 92.3877 371.703 90.8929 378.859 89.9784C386.014 89.0639 391.575 93.1807 402.99 97.2065ZM93.6707 487.947H92.6635V488.953L93.6707 487.947ZM88.6347 489.96L90.6491 490.966C89.3062 490.966 88.6347 490.966 88.6347 490.966V489.96ZM76.5481 495.998C75.8767 495.998 75.5409 496.334 75.5409 497.005C75.5409 497.005 75.2052 497.005 74.5337 497.005H73.5265L76.5481 495.998ZM63.4544 498.011C63.4544 497.34 62.7829 497.005 61.4399 497.005L63.4544 498.011ZM63.4544 497.005C62.7829 497.005 62.4472 496.669 62.4472 495.998H64.4616L63.4544 497.005ZM61.4399 494.992H63.4544L64.4616 492.979L61.4399 493.985V494.992ZM43.3101 488.953V489.96H42.3029L43.3101 488.953ZM131.945 629.854V628.848C132.616 629.519 132.952 629.854 132.952 629.854H131.945ZM137.988 620.796L135.974 622.809L136.981 618.783H138.995L137.988 620.796ZM154.103 579.532C153.432 580.203 153.096 580.539 153.096 580.539C153.096 581.21 152.761 581.881 152.089 582.552V583.558L153.096 580.539L154.103 579.532ZM279.25 607.47C278.578 606.128 278.242 603.779 278.242 600.425C278.242 597.741 278.242 595.393 278.242 593.38C278.914 591.367 279.25 589.018 279.25 586.335L280.257 585.328C280.257 583.986 279.921 582.98 279.25 582.309C279.25 581.638 279.25 580.967 279.25 580.296C279.25 576.941 279.921 572.58 281.264 567.212C279.25 577.277 278.242 587.005 278.242 596.399C278.242 603.109 278.578 608.141 279.25 611.495V607.47ZM319.538 644.708C320.881 644.708 322.224 644.037 323.567 642.695L317.524 645.714C318.867 645.043 319.538 644.708 319.538 644.708ZM288.315 638.669H289.322V640.682H291.336L290.329 638.669L289.322 637.663L288.315 638.669ZM287.307 614.515L288.315 615.521V614.515H287.307ZM282.271 560.167C282.271 560.838 282.271 561.174 282.271 561.174C282.943 561.174 283.278 561.509 283.278 562.18C282.607 563.522 282.271 564.193 282.271 564.193H281.264C281.935 562.851 282.271 561.509 282.271 560.167ZM282.271 620.553C282.943 619.882 283.278 619.547 283.278 619.547C283.278 620.218 282.943 620.553 282.271 620.553C282.271 619.882 282.271 619.882 282.271 620.553ZM291.336 549.096L290.329 552.116V548.09L291.336 544.064V548.09V549.096ZM291.336 539.032L290.329 543.058H288.315V539.032L290.329 536.013L291.336 537.019V539.032Z" fill="black"/>
</svg>
